<svg xmlns="http://www.w3.org/2000/svg" xmlns:xlink="http://www.w3.org/1999/xlink" version="1.1" id="Layer_1" x="0px" y="0px" style="enable-background:new 0 0 612 792;" xml:space="preserve" viewBox="113.1 306.04 393.55 129">
<style type="text/css">
	.st0{fill:none;}
	.st1{fill:#DBD9D9;}
	.st2{font-family:'Calibri-Bold';}
	.st3{font-size:52px;}
	.st4{fill:#D1D3D4;}
	.st5{fill:#A7A9AC;}
</style>
<rect x="239.99" y="280.25" class="st0" width="259.74" height="161.04"/>
<text transform="matrix(1 0 0 1 284.1322 378.3938)" class="st1 st2 st3">BSTORY</text>
<g>
	<g>
		<path class="st4" d="M327.47,401.35l-3.95,12.5h-2.19l-2.71-8.95c-0.1-0.34-0.17-0.73-0.21-1.16h-0.05    c-0.03,0.29-0.12,0.67-0.27,1.13l-2.95,8.97h-2.11l-3.99-12.5h2.21l2.73,9.4c0.09,0.29,0.15,0.66,0.18,1.12h0.1    c0.03-0.36,0.1-0.74,0.23-1.15l3.04-9.38h1.93l2.73,9.42c0.09,0.3,0.15,0.68,0.19,1.12h0.1c0.02-0.32,0.09-0.69,0.22-1.12    l2.68-9.42H327.47z"/>
		<path class="st4" d="M340.87,413.85h-2.11v-7.2c0-2.6-1.02-3.91-3.06-3.91c-1.03,0-1.9,0.38-2.6,1.13    c-0.7,0.75-1.05,1.72-1.05,2.9v7.08h-2.11v-18.51h2.11v8.08h0.05c1.01-1.58,2.45-2.37,4.32-2.37c2.97,0,4.45,1.7,4.45,5.09V413.85    z"/>
		<path class="st4" d="M354.3,413.85h-2.11v-1.95h-0.05c-0.92,1.5-2.27,2.25-4.05,2.25c-1.31,0-2.34-0.33-3.08-0.99    c-0.74-0.66-1.11-1.53-1.11-2.62c0-2.34,1.45-3.69,4.35-4.08l3.95-0.52c0-2.12-0.91-3.19-2.71-3.19c-1.59,0-3.02,0.51-4.3,1.54    v-2.05c1.29-0.78,2.79-1.17,4.48-1.17c3.1,0,4.64,1.55,4.64,4.66V413.85z M352.19,407.52l-3.18,0.42    c-0.98,0.13-1.71,0.36-2.21,0.69c-0.5,0.33-0.75,0.91-0.75,1.75c0,0.61,0.23,1.11,0.69,1.5c0.46,0.39,1.07,0.58,1.83,0.58    c1.05,0,1.91-0.35,2.59-1.04c0.68-0.7,1.02-1.58,1.02-2.64V407.52z"/>
		<path class="st4" d="M364.41,413.73c-0.5,0.26-1.15,0.39-1.97,0.39c-2.31,0-3.46-1.22-3.46-3.66v-7.4h-2.26v-1.71h2.26v-3.05    l2.11-0.65v3.7h3.32v1.71h-3.32v7.04c0,0.84,0.15,1.44,0.45,1.79s0.8,0.54,1.49,0.54c0.53,0,0.99-0.14,1.38-0.42V413.73z"/>
		<path class="st4" d="M369.85,396.05l-1.8,5.44h-1.52l1.43-5.44H369.85z"/>
		<path class="st4" d="M372.52,413.4v-2.15c1.15,0.8,2.41,1.21,3.79,1.21c1.85,0,2.78-0.59,2.78-1.76c0-0.33-0.08-0.62-0.24-0.85    c-0.16-0.23-0.37-0.44-0.64-0.62c-0.27-0.18-0.59-0.34-0.95-0.48c-0.36-0.14-0.76-0.29-1.18-0.45c-0.58-0.22-1.1-0.44-1.54-0.67    c-0.44-0.22-0.81-0.48-1.11-0.76c-0.3-0.28-0.52-0.6-0.67-0.96c-0.15-0.36-0.23-0.78-0.23-1.26c0-0.59,0.14-1.1,0.42-1.56    c0.28-0.45,0.66-0.83,1.13-1.13c0.47-0.31,1.01-0.54,1.61-0.69c0.6-0.16,1.23-0.23,1.87-0.23c1.14,0,2.16,0.19,3.06,0.56v2.03    c-0.97-0.6-2.08-0.9-3.34-0.9c-0.39,0-0.75,0.04-1.07,0.13c-0.32,0.09-0.59,0.21-0.82,0.36s-0.4,0.34-0.53,0.56    s-0.19,0.45-0.19,0.71c0,0.33,0.06,0.6,0.19,0.82c0.12,0.22,0.31,0.42,0.55,0.59c0.24,0.17,0.53,0.33,0.88,0.46    c0.34,0.14,0.73,0.29,1.17,0.45c0.58,0.21,1.11,0.43,1.57,0.65c0.46,0.22,0.86,0.48,1.18,0.76c0.33,0.28,0.58,0.6,0.75,0.97    c0.18,0.37,0.26,0.8,0.26,1.31c0,0.62-0.14,1.16-0.43,1.61c-0.29,0.46-0.67,0.83-1.15,1.14c-0.48,0.3-1.03,0.52-1.66,0.67    s-1.28,0.22-1.97,0.22C374.69,414.14,373.51,413.89,372.52,413.4z"/>
		<path class="st4" d="M402.25,401.35l-6.06,14.5c-1.08,2.59-2.6,3.88-4.55,3.88c-0.55,0-1.01-0.05-1.38-0.16v-1.79    c0.46,0.15,0.87,0.22,1.25,0.22c1.06,0,1.86-0.6,2.39-1.81l1.05-2.37l-5.15-12.48h2.34l3.56,9.62c0.04,0.12,0.13,0.44,0.27,0.95    h0.08c0.04-0.2,0.13-0.5,0.26-0.93l3.74-9.64H402.25z"/>
		<path class="st4" d="M410.04,414.14c-1.95,0-3.5-0.58-4.66-1.75c-1.16-1.17-1.74-2.72-1.74-4.64c0-2.1,0.6-3.74,1.81-4.92    c1.21-1.18,2.84-1.77,4.9-1.77c1.96,0,3.5,0.57,4.6,1.72c1.1,1.15,1.65,2.74,1.65,4.77c0,1.99-0.59,3.59-1.78,4.79    C413.63,413.54,412.04,414.14,410.04,414.14z M410.2,402.74c-1.35,0-2.43,0.44-3.22,1.31s-1.18,2.08-1.18,3.62    c0,1.48,0.4,2.65,1.2,3.5c0.8,0.86,1.86,1.28,3.2,1.28c1.36,0,2.41-0.42,3.15-1.26c0.73-0.84,1.1-2.03,1.1-3.58    c0-1.56-0.37-2.77-1.1-3.61S411.56,402.74,410.2,402.74z"/>
		<path class="st4" d="M430.65,413.85h-2.11v-1.98h-0.05c-0.87,1.51-2.23,2.27-4.06,2.27c-3.14,0-4.71-1.77-4.71-5.32v-7.47h2.1    v7.15c0,2.64,1.06,3.96,3.19,3.96c1.03,0,1.88-0.36,2.54-1.08c0.67-0.72,1-1.66,1-2.83v-7.2h2.11V413.85z"/>
		<path class="st4" d="M441.8,403.37c-0.37-0.27-0.9-0.4-1.6-0.4c-0.9,0-1.65,0.4-2.26,1.21c-0.61,0.81-0.91,1.9-0.91,3.3v6.37    h-2.11v-12.5h2.11v2.58h0.05c0.3-0.88,0.76-1.56,1.38-2.06c0.62-0.49,1.31-0.74,2.07-0.74c0.55,0,0.97,0.06,1.26,0.17V403.37z"/>
		<path class="st4" d="M450.57,413.4v-2.15c1.15,0.8,2.41,1.21,3.79,1.21c1.85,0,2.78-0.59,2.78-1.76c0-0.33-0.08-0.62-0.24-0.85    c-0.16-0.23-0.37-0.44-0.64-0.62c-0.27-0.18-0.59-0.34-0.95-0.48c-0.36-0.14-0.76-0.29-1.18-0.45c-0.58-0.22-1.1-0.44-1.54-0.67    c-0.44-0.22-0.81-0.48-1.11-0.76c-0.3-0.28-0.52-0.6-0.67-0.96c-0.15-0.36-0.23-0.78-0.23-1.26c0-0.59,0.14-1.1,0.42-1.56    c0.28-0.45,0.66-0.83,1.13-1.13c0.47-0.31,1.01-0.54,1.61-0.69c0.6-0.16,1.23-0.23,1.87-0.23c1.14,0,2.16,0.19,3.06,0.56v2.03    c-0.97-0.6-2.08-0.9-3.34-0.9c-0.39,0-0.75,0.04-1.07,0.13c-0.32,0.09-0.59,0.21-0.82,0.36s-0.4,0.34-0.53,0.56    s-0.19,0.45-0.19,0.71c0,0.33,0.06,0.6,0.19,0.82c0.12,0.22,0.31,0.42,0.55,0.59c0.24,0.17,0.53,0.33,0.88,0.46    c0.34,0.14,0.73,0.29,1.17,0.45c0.58,0.21,1.11,0.43,1.57,0.65c0.46,0.22,0.86,0.48,1.18,0.76c0.33,0.28,0.58,0.6,0.75,0.97    c0.18,0.37,0.26,0.8,0.26,1.31c0,0.62-0.14,1.16-0.43,1.61c-0.29,0.46-0.67,0.83-1.15,1.14c-0.48,0.3-1.03,0.52-1.66,0.67    s-1.28,0.22-1.97,0.22C452.74,414.14,451.56,413.89,450.57,413.4z"/>
		<path class="st4" d="M468.68,413.73c-0.5,0.26-1.15,0.39-1.97,0.39c-2.31,0-3.46-1.22-3.46-3.66v-7.4h-2.26v-1.71h2.26v-3.05    l2.11-0.65v3.7h3.32v1.71h-3.32v7.04c0,0.84,0.15,1.44,0.45,1.79s0.8,0.54,1.49,0.54c0.53,0,0.99-0.14,1.38-0.42V413.73z"/>
		<path class="st4" d="M477.03,414.14c-1.95,0-3.5-0.58-4.66-1.75c-1.16-1.17-1.74-2.72-1.74-4.64c0-2.1,0.6-3.74,1.81-4.92    c1.21-1.18,2.84-1.77,4.9-1.77c1.96,0,3.5,0.57,4.6,1.72c1.1,1.15,1.65,2.74,1.65,4.77c0,1.99-0.59,3.59-1.78,4.79    C480.62,413.54,479.02,414.14,477.03,414.14z M477.18,402.74c-1.35,0-2.43,0.44-3.22,1.31s-1.18,2.08-1.18,3.62    c0,1.48,0.4,2.65,1.2,3.5c0.8,0.86,1.86,1.28,3.2,1.28c1.36,0,2.41-0.42,3.15-1.26c0.73-0.84,1.1-2.03,1.1-3.58    c0-1.56-0.37-2.77-1.1-3.61S478.54,402.74,477.18,402.74z"/>
		<path class="st4" d="M493.85,403.37c-0.37-0.27-0.9-0.4-1.6-0.4c-0.9,0-1.65,0.4-2.26,1.21c-0.61,0.81-0.91,1.9-0.91,3.3v6.37    h-2.11v-12.5h2.11v2.58h0.05c0.3-0.88,0.76-1.56,1.38-2.06c0.62-0.49,1.31-0.74,2.07-0.74c0.55,0,0.97,0.06,1.26,0.17V403.37z"/>
		<path class="st4" d="M506.65,401.35l-6.06,14.5c-1.08,2.59-2.6,3.88-4.55,3.88c-0.55,0-1.01-0.05-1.38-0.16v-1.79    c0.46,0.15,0.87,0.22,1.25,0.22c1.06,0,1.86-0.6,2.39-1.81l1.05-2.37l-5.15-12.48h2.34l3.56,9.62c0.04,0.12,0.13,0.44,0.27,0.95    h0.08c0.04-0.2,0.13-0.5,0.26-0.93l3.74-9.64H506.65z"/>
	</g>
</g>
<path class="st4" d="M250.57,435.04H137.78c-13.63,0-24.68-11.05-24.68-24.68v-54.65c0-13.63,11.05-24.68,24.68-24.68h112.79  c13.63,0,24.68,11.05,24.68,24.68v54.65C275.25,423.99,264.2,435.04,250.57,435.04z"/>
<path class="st4" d="M221.22,320.74v12.6c0,8.12-7.24,14.7-16.16,14.7h-21.77c-8.93,0-16.16-6.58-16.16-14.7v-12.6  c0-8.12,7.24-14.7,16.16-14.7h21.77C213.99,306.04,221.22,312.62,221.22,320.74z"/>
<path class="st5" d="M192.12,419.04h3.21c17.56,0,31.8-14.24,31.8-31.8v-7.39c0-17.56-14.24-31.8-31.8-31.8h-3.21  c-17.56,0-31.8,14.24-31.8,31.8v7.39C160.32,404.8,174.56,419.04,192.12,419.04z"/>
</svg>